<svg xmlns="http://www.w3.org/2000/svg" viewBox="0 0 1190 650" font-family="Arial,Helvetica,sans-serif">
<rect x="0.00" y="0.00" width="1190.00" height="650.00" rx="0" fill="#f0f4f4" stroke="none"/>
<text x="595.0" y="18" text-anchor="middle" font-size="14" font-weight="bold" fill="#263238">A&amp;AD Pipeline ↔ Enterprise Reference Atlas (Zachman / TBL)</text>
<text x="595.0" y="32" text-anchor="middle" font-size="8.5" fill="#546e7a">Diagonal: A&amp;AD stages mapped onto Zachman holons  ·  AI2Accountants / CyberCPA  ·  MAARC 2026</text>
<rect x="119.73" y="526.70" width="174.19" height="32.76" rx="3" fill="#00695c" stroke="none"/>
<text x="206.8" y="537.7" text-anchor="middle" font-size="8.5" font-weight="bold" fill="white">Why</text>
<text x="206.8" y="547.7" text-anchor="middle" font-size="8.5" font-weight="bold" fill="white">(Motivation)</text>
<rect x="295.92" y="526.70" width="174.19" height="32.76" rx="3" fill="#00695c" stroke="none"/>
<text x="383.0" y="537.7" text-anchor="middle" font-size="8.5" font-weight="bold" fill="white">How</text>
<text x="383.0" y="547.7" text-anchor="middle" font-size="8.5" font-weight="bold" fill="white">(Process)</text>
<rect x="472.11" y="526.70" width="174.19" height="32.76" rx="3" fill="#00695c" stroke="none"/>
<text x="559.2" y="537.7" text-anchor="middle" font-size="8.5" font-weight="bold" fill="white">What</text>
<text x="559.2" y="547.7" text-anchor="middle" font-size="8.5" font-weight="bold" fill="white">(Data)</text>
<rect x="648.30" y="526.70" width="174.19" height="32.76" rx="3" fill="#00695c" stroke="none"/>
<text x="735.4" y="537.7" text-anchor="middle" font-size="8.5" font-weight="bold" fill="white">Who</text>
<text x="735.4" y="547.7" text-anchor="middle" font-size="8.5" font-weight="bold" fill="white">(People)</text>
<rect x="824.49" y="526.70" width="174.19" height="32.76" rx="3" fill="#00695c" stroke="none"/>
<text x="911.6" y="537.7" text-anchor="middle" font-size="8.5" font-weight="bold" fill="white">Where</text>
<text x="911.6" y="547.7" text-anchor="middle" font-size="8.5" font-weight="bold" fill="white">(Network)</text>
<rect x="1000.68" y="526.70" width="174.19" height="32.76" rx="3" fill="#00695c" stroke="none"/>
<text x="1087.8" y="537.7" text-anchor="middle" font-size="8.5" font-weight="bold" fill="white">When</text>
<text x="1087.8" y="547.7" text-anchor="middle" font-size="8.5" font-weight="bold" fill="white">(Time)</text>
<rect x="31.10" y="483.43" width="85.64" height="77.03" rx="3" fill="#004d40" stroke="none"/>
<text x="73.9" y="517.9" text-anchor="middle" font-size="8" font-weight="bold" fill="white">Contextual</text>
<text x="73.9" y="527.9" text-anchor="middle" font-size="6.5" fill="white" opacity="0.85">TBL: Trust &amp; UI</text>
<rect x="119.73" y="484.43" width="174.19" height="75.03" rx="2" fill="#b2dfdb" stroke="#b2dfdb" stroke-width="0.5"/>
<text x="206.8" y="518.9" text-anchor="middle" font-size="6.5" fill="#004d40">Auditor Trust</text>
<text x="206.8" y="526.9" text-anchor="middle" font-size="6.5" fill="#004d40">Compliance</text>
<rect x="295.92" y="484.43" width="174.19" height="75.03" rx="2" fill="#e0f2f1" stroke="#b2dfdb" stroke-width="0.5"/>
<text x="383.0" y="518.9" text-anchor="middle" font-size="6.5" fill="#004d40">Report Workflow</text>
<text x="383.0" y="526.9" text-anchor="middle" font-size="6.5" fill="#004d40">Dashboards</text>
<rect x="472.11" y="484.43" width="174.19" height="75.03" rx="2" fill="#b2dfdb" stroke="#b2dfdb" stroke-width="0.5"/>
<text x="559.2" y="518.9" text-anchor="middle" font-size="6.5" fill="#004d40">XBRL/ESG</text>
<text x="559.2" y="526.9" text-anchor="middle" font-size="6.5" fill="#004d40">Taxonomies</text>
<rect x="648.30" y="484.43" width="174.19" height="75.03" rx="2" fill="#e0f2f1" stroke="#b2dfdb" stroke-width="0.5"/>
<text x="735.4" y="518.9" text-anchor="middle" font-size="6.5" fill="#004d40">Certified</text>
<text x="735.4" y="526.9" text-anchor="middle" font-size="6.5" fill="#004d40">Personnel</text>
<rect x="824.49" y="484.43" width="174.19" height="75.03" rx="2" fill="#b2dfdb" stroke="#b2dfdb" stroke-width="0.5"/>
<text x="911.6" y="518.9" text-anchor="middle" font-size="6.5" fill="#004d40">Global Network</text>
<text x="911.6" y="526.9" text-anchor="middle" font-size="6.5" fill="#004d40">Perimeter</text>
<rect x="1000.68" y="484.43" width="174.19" height="75.03" rx="2" fill="#e0f2f1" stroke="#b2dfdb" stroke-width="0.5"/>
<text x="1087.8" y="518.9" text-anchor="middle" font-size="6.5" fill="#004d40">Fiscal Periods</text>
<text x="1087.8" y="526.9" text-anchor="middle" font-size="6.5" fill="#004d40">Real-time</text>
<rect x="31.10" y="406.40" width="85.64" height="77.03" rx="3" fill="#00695c" stroke="none"/>
<text x="73.9" y="440.9" text-anchor="middle" font-size="8" font-weight="bold" fill="white">Conceptual</text>
<text x="73.9" y="450.9" text-anchor="middle" font-size="6.5" fill="white" opacity="0.85">TBL: Ontology (OWL)</text>
<rect x="119.73" y="407.40" width="174.19" height="75.03" rx="2" fill="#e0f2f1" stroke="#b2dfdb" stroke-width="0.5"/>
<text x="206.8" y="441.9" text-anchor="middle" font-size="6.5" fill="#004d40">Business Rules</text>
<text x="206.8" y="449.9" text-anchor="middle" font-size="6.5" fill="#004d40">DFRNT Logic</text>
<rect x="295.92" y="407.40" width="174.19" height="75.03" rx="2" fill="#b2dfdb" stroke="#b2dfdb" stroke-width="0.5"/>
<text x="383.0" y="441.9" text-anchor="middle" font-size="6.5" fill="#004d40">MapForce Transform</text>
<text x="383.0" y="449.9" text-anchor="middle" font-size="6.5" fill="#004d40">JSON-LD→XBRL GL</text>
<rect x="472.11" y="407.40" width="174.19" height="75.03" rx="2" fill="#e0f2f1" stroke="#b2dfdb" stroke-width="0.5"/>
<text x="559.2" y="441.9" text-anchor="middle" font-size="6.5" fill="#004d40">XBRL/ESG</text>
<text x="559.2" y="449.9" text-anchor="middle" font-size="6.5" fill="#004d40">SRCD,ISSB,GRI</text>
<rect x="648.30" y="407.40" width="174.19" height="75.03" rx="2" fill="#b2dfdb" stroke="#b2dfdb" stroke-width="0.5"/>
<text x="735.4" y="441.9" text-anchor="middle" font-size="6.5" fill="#004d40">Ed/Skills</text>
<text x="735.4" y="449.9" text-anchor="middle" font-size="6.5" fill="#004d40">Ontologies</text>
<rect x="824.49" y="407.40" width="174.19" height="75.03" rx="2" fill="#e0f2f1" stroke="#b2dfdb" stroke-width="0.5"/>
<text x="911.6" y="441.9" text-anchor="middle" font-size="6.5" fill="#004d40">DigitalOcean</text>
<text x="911.6" y="449.9" text-anchor="middle" font-size="6.5" fill="#004d40">Nginx Nodes</text>
<rect x="1000.68" y="407.40" width="174.19" height="75.03" rx="2" fill="#b2dfdb" stroke="#b2dfdb" stroke-width="0.5"/>
<text x="1087.8" y="441.9" text-anchor="middle" font-size="6.5" fill="#004d40">Event Seq.</text>
<text x="1087.8" y="449.9" text-anchor="middle" font-size="6.5" fill="#004d40">Tx Logs</text>
<rect x="31.10" y="329.37" width="85.64" height="77.03" rx="3" fill="#00796b" stroke="none"/>
<text x="73.9" y="363.9" text-anchor="middle" font-size="8" font-weight="bold" fill="white">Logical</text>
<text x="73.9" y="373.9" text-anchor="middle" font-size="6.5" fill="white" opacity="0.85">TBL: RDF (Graph)</text>
<rect x="119.73" y="330.37" width="174.19" height="75.03" rx="2" fill="#b2dfdb" stroke="#b2dfdb" stroke-width="0.5"/>
<text x="206.8" y="364.9" text-anchor="middle" font-size="6.5" fill="#004d40">Data Integrity</text>
<text x="206.8" y="372.9" text-anchor="middle" font-size="6.5" fill="#004d40">SHACL</text>
<rect x="295.92" y="330.37" width="174.19" height="75.03" rx="2" fill="#e0f2f1" stroke="#b2dfdb" stroke-width="0.5"/>
<text x="383.0" y="364.9" text-anchor="middle" font-size="6.5" fill="#004d40">MapForce Mapping</text>
<text x="383.0" y="372.9" text-anchor="middle" font-size="6.5" fill="#004d40">UBL→JSON-LD</text>
<rect x="472.11" y="330.37" width="174.19" height="75.03" rx="2" fill="#b2dfdb" stroke="#b2dfdb" stroke-width="0.5"/>
<text x="559.2" y="364.9" text-anchor="middle" font-size="6.5" fill="#004d40">JSON-LD Models</text>
<text x="559.2" y="372.9" text-anchor="middle" font-size="6.5" fill="#004d40">Graph DB</text>
<rect x="648.30" y="330.37" width="174.19" height="75.03" rx="2" fill="#e0f2f1" stroke="#b2dfdb" stroke-width="0.5"/>
<text x="735.4" y="364.9" text-anchor="middle" font-size="6.5" fill="#004d40">User Auth</text>
<text x="735.4" y="372.9" text-anchor="middle" font-size="6.5" fill="#004d40">RDF</text>
<rect x="824.49" y="330.37" width="174.19" height="75.03" rx="2" fill="#b2dfdb" stroke="#b2dfdb" stroke-width="0.5"/>
<text x="911.6" y="364.9" text-anchor="middle" font-size="6.5" fill="#004d40">API Endpoints</text>
<text x="911.6" y="372.9" text-anchor="middle" font-size="6.5" fill="#004d40">HTTPS</text>
<rect x="1000.68" y="330.37" width="174.19" height="75.03" rx="2" fill="#e0f2f1" stroke="#b2dfdb" stroke-width="0.5"/>
<text x="1087.8" y="364.9" text-anchor="middle" font-size="6.5" fill="#004d40">Time-Series</text>
<text x="1087.8" y="372.9" text-anchor="middle" font-size="6.5" fill="#004d40">Timestamps</text>
<rect x="31.10" y="252.34" width="85.64" height="77.03" rx="3" fill="#00897b" stroke="none"/>
<text x="73.9" y="286.9" text-anchor="middle" font-size="8" font-weight="bold" fill="white">Physical</text>
<text x="73.9" y="296.9" text-anchor="middle" font-size="6.5" fill="white" opacity="0.85">TBL: XML &amp; Namespaces</text>
<rect x="119.73" y="253.34" width="174.19" height="75.03" rx="2" fill="#e0f2f1" stroke="#b2dfdb" stroke-width="0.5"/>
<text x="206.8" y="287.9" text-anchor="middle" font-size="6.5" fill="#004d40">Validation Specs</text>
<text x="206.8" y="295.9" text-anchor="middle" font-size="6.5" fill="#004d40">XSD</text>
<rect x="295.92" y="253.34" width="174.19" height="75.03" rx="2" fill="#b2dfdb" stroke="#b2dfdb" stroke-width="0.5"/>
<text x="383.0" y="287.9" text-anchor="middle" font-size="6.5" fill="#004d40">Ingest Programs</text>
<text x="383.0" y="295.9" text-anchor="middle" font-size="6.5" fill="#004d40">NoSQL Client</text>
<rect x="472.11" y="253.34" width="174.19" height="75.03" rx="2" fill="#e0f2f1" stroke="#b2dfdb" stroke-width="0.5"/>
<text x="559.2" y="287.9" text-anchor="middle" font-size="6.5" fill="#004d40">Source Docs</text>
<text x="559.2" y="295.9" text-anchor="middle" font-size="6.5" fill="#004d40">Invoices PDFs</text>
<rect x="648.30" y="253.34" width="174.19" height="75.03" rx="2" fill="#b2dfdb" stroke="#b2dfdb" stroke-width="0.5"/>
<text x="735.4" y="287.9" text-anchor="middle" font-size="6.5" fill="#004d40">Node Clients</text>
<text x="735.4" y="295.9" text-anchor="middle" font-size="6.5" fill="#004d40">Local Repos</text>
<rect x="824.49" y="253.34" width="174.19" height="75.03" rx="2" fill="#e0f2f1" stroke="#b2dfdb" stroke-width="0.5"/>
<text x="911.6" y="287.9" text-anchor="middle" font-size="6.5" fill="#004d40">Private IPFS</text>
<text x="911.6" y="295.9" text-anchor="middle" font-size="6.5" fill="#004d40">Port 8081</text>
<rect x="1000.68" y="253.34" width="174.19" height="75.03" rx="2" fill="#b2dfdb" stroke="#b2dfdb" stroke-width="0.5"/>
<text x="1087.8" y="287.9" text-anchor="middle" font-size="6.5" fill="#004d40">XML IssueTime</text>
<text x="1087.8" y="295.9" text-anchor="middle" font-size="6.5" fill="#004d40">Creation Date</text>
<rect x="31.10" y="175.31" width="85.64" height="77.03" rx="3" fill="#26a69a" stroke="none"/>
<text x="73.9" y="209.8" text-anchor="middle" font-size="8" font-weight="bold" fill="white">Detailed</text>
<text x="73.9" y="219.8" text-anchor="middle" font-size="6.5" fill="white" opacity="0.85">TBL: URI / IRI</text>
<rect x="119.73" y="176.31" width="174.19" height="75.03" rx="2" fill="#b2dfdb" stroke="#b2dfdb" stroke-width="0.5"/>
<text x="206.8" y="210.8" text-anchor="middle" font-size="6.5" fill="#004d40">Context Flags</text>
<text x="206.8" y="218.8" text-anchor="middle" font-size="6.5" fill="#004d40">Unicode</text>
<rect x="295.92" y="176.31" width="174.19" height="75.03" rx="2" fill="#e0f2f1" stroke="#b2dfdb" stroke-width="0.5"/>
<text x="383.0" y="210.8" text-anchor="middle" font-size="6.5" fill="#004d40">Micro-Functions</text>
<text x="383.0" y="218.8" text-anchor="middle" font-size="6.5" fill="#004d40">Line logic</text>
<rect x="472.11" y="176.31" width="174.19" height="75.03" rx="2" fill="#b2dfdb" stroke="#b2dfdb" stroke-width="0.5"/>
<text x="559.2" y="210.8" text-anchor="middle" font-size="6.5" fill="#004d40">XBRL Concept URIs</text>
<text x="559.2" y="218.8" text-anchor="middle" font-size="6.5" fill="#004d40">DFRNT IDs</text>
<rect x="648.30" y="176.31" width="174.19" height="75.03" rx="2" fill="#e0f2f1" stroke="#b2dfdb" stroke-width="0.5"/>
<text x="735.4" y="210.8" text-anchor="middle" font-size="6.5" fill="#004d40">Blockchain</text>
<text x="735.4" y="218.8" text-anchor="middle" font-size="6.5" fill="#004d40">Badges</text>
<rect x="824.49" y="176.31" width="174.19" height="75.03" rx="2" fill="#b2dfdb" stroke="#b2dfdb" stroke-width="0.5"/>
<text x="911.6" y="210.8" text-anchor="middle" font-size="6.5" fill="#004d40">Memory Addr</text>
<text x="911.6" y="218.8" text-anchor="middle" font-size="6.5" fill="#004d40">Ports/IP</text>
<rect x="1000.68" y="176.31" width="174.19" height="75.03" rx="2" fill="#e0f2f1" stroke="#b2dfdb" stroke-width="0.5"/>
<text x="1087.8" y="210.8" text-anchor="middle" font-size="6.5" fill="#004d40">Tick Constants</text>
<text x="1087.8" y="218.8" text-anchor="middle" font-size="6.5" fill="#004d40">Epoch</text>
<rect x="31.10" y="98.27" width="85.64" height="77.03" rx="3" fill="#4db6ac" stroke="none"/>
<text x="73.9" y="132.8" text-anchor="middle" font-size="8" font-weight="bold" fill="white">Functioning</text>
<text x="73.9" y="142.8" text-anchor="middle" font-size="6.5" fill="white" opacity="0.85">TBL: Linked Data Assets</text>
<rect x="119.73" y="99.27" width="174.19" height="75.03" rx="2" fill="#e0f2f1" stroke="#b2dfdb" stroke-width="0.5"/>
<text x="206.8" y="133.8" text-anchor="middle" font-size="6.5" fill="#004d40">Realized Value</text>
<text x="206.8" y="141.8" text-anchor="middle" font-size="6.5" fill="#004d40">Econ Exch</text>
<rect x="295.92" y="99.27" width="174.19" height="75.03" rx="2" fill="#b2dfdb" stroke="#b2dfdb" stroke-width="0.5"/>
<text x="383.0" y="133.8" text-anchor="middle" font-size="6.5" fill="#004d40">Live Execution</text>
<text x="383.0" y="141.8" text-anchor="middle" font-size="6.5" fill="#004d40">Containers</text>
<rect x="472.11" y="99.27" width="174.19" height="75.03" rx="2" fill="#e0f2f1" stroke="#b2dfdb" stroke-width="0.5"/>
<text x="559.2" y="133.8" text-anchor="middle" font-size="6.5" fill="#004d40">Graph Instances</text>
<text x="559.2" y="141.8" text-anchor="middle" font-size="6.5" fill="#004d40">DB</text>
<rect x="648.30" y="99.27" width="174.19" height="75.03" rx="2" fill="#b2dfdb" stroke="#b2dfdb" stroke-width="0.5"/>
<text x="735.4" y="133.8" text-anchor="middle" font-size="6.5" fill="#004d40">Active Actors</text>
<text x="735.4" y="141.8" text-anchor="middle" font-size="6.5" fill="#004d40">Sessions</text>
<rect x="824.49" y="99.27" width="174.19" height="75.03" rx="2" fill="#e0f2f1" stroke="#b2dfdb" stroke-width="0.5"/>
<text x="911.6" y="133.8" text-anchor="middle" font-size="6.5" fill="#004d40">Network Traffic</text>
<text x="911.6" y="141.8" text-anchor="middle" font-size="6.5" fill="#004d40">TCP/IP</text>
<rect x="1000.68" y="99.27" width="174.19" height="75.03" rx="2" fill="#b2dfdb" stroke="#b2dfdb" stroke-width="0.5"/>
<text x="1087.8" y="133.8" text-anchor="middle" font-size="6.5" fill="#004d40">Op Logs</text>
<text x="1087.8" y="141.8" text-anchor="middle" font-size="6.5" fill="#004d40">Real-time</text>
<rect x="472.11" y="253.34" width="174.19" height="75.03" rx="4" fill="#80cbc4" stroke="#E65100" stroke-width="2" opacity="0.85"/>
<text x="559.2" y="286.9" text-anchor="middle" font-size="8" font-weight="bold" fill="white">01</text>
<text x="559.2" y="296.9" text-anchor="middle" font-size="8" font-weight="bold" fill="white">REA Genesis</text>
<rect x="472.11" y="330.37" width="174.19" height="75.03" rx="4" fill="#26a69a" stroke="#E65100" stroke-width="2" opacity="0.85"/>
<text x="559.2" y="363.9" text-anchor="middle" font-size="8" font-weight="bold" fill="white">02</text>
<text x="559.2" y="373.9" text-anchor="middle" font-size="8" font-weight="bold" fill="white">Graph KE</text>
<rect x="295.92" y="407.40" width="174.19" height="75.03" rx="4" fill="#00897b" stroke="#E65100" stroke-width="2" opacity="0.85"/>
<text x="383.0" y="440.9" text-anchor="middle" font-size="8" font-weight="bold" fill="white">03</text>
<text x="383.0" y="450.9" text-anchor="middle" font-size="8" font-weight="bold" fill="white">Sem. Trans.</text>
<rect x="119.73" y="407.40" width="174.19" height="75.03" rx="4" fill="#00796b" stroke="#E65100" stroke-width="2" opacity="0.85"/>
<text x="206.8" y="440.9" text-anchor="middle" font-size="8" font-weight="bold" fill="white">04</text>
<text x="206.8" y="450.9" text-anchor="middle" font-size="8" font-weight="bold" fill="white">DataBook</text>
<rect x="119.73" y="484.43" width="174.19" height="75.03" rx="4" fill="#37474f" stroke="#E65100" stroke-width="2" opacity="0.85"/>
<text x="206.8" y="517.9" text-anchor="middle" font-size="8" font-weight="bold" fill="white">05</text>
<text x="206.8" y="527.9" text-anchor="middle" font-size="8" font-weight="bold" fill="white">Audit</text>
<line x1="559.2" y1="290.9" x2="559.2" y2="367.9" stroke="#E65100" stroke-width="2.5" stroke-dasharray="5,3" opacity="0.9"/>
<polygon points="559.2,367.9 555.2,359.9 563.2,359.9" fill="#E65100"/>
<line x1="559.2" y1="367.9" x2="383.0" y2="444.9" stroke="#E65100" stroke-width="2.5" stroke-dasharray="5,3" opacity="0.9"/>
<polygon points="383.0,444.9 388.7,438.0 391.9,445.4" fill="#E65100"/>
<line x1="383.0" y1="444.9" x2="206.8" y2="444.9" stroke="#E65100" stroke-width="2.5" stroke-dasharray="5,3" opacity="0.9"/>
<polygon points="206.8,444.9 214.8,440.9 214.8,448.9" fill="#E65100"/>
<line x1="206.8" y1="444.9" x2="206.8" y2="521.9" stroke="#E65100" stroke-width="2.5" stroke-dasharray="5,3" opacity="0.9"/>
<polygon points="206.8,521.9 202.8,513.9 210.8,513.9" fill="#E65100"/>
<text x="31.1" y="37.7" font-size="7.5" font-weight="bold" fill="#546e7a" font-family="Courier New,monospace" letter-spacing="2">A&amp;AD PIPELINE →</text>
<polygon points="31.096707818930035,43.67724867724871 248.05039281705945,43.67724867724871 260.05039281705945,66.60780423280426 248.05039281705945,89.5383597883598 31.096707818930035,89.5383597883598" fill="#80cbc4" stroke="white" stroke-width="1.5"/>
<text x="145.6" y="54.6" text-anchor="middle" font-size="8.5" font-weight="bold" fill="white">01 REA Genesis</text>
<text x="145.6" y="66.6" text-anchor="middle" font-size="6.5" fill="white" opacity="0.85">XSD · UBL · ISO 21378</text>
<rect x="63.2" y="71.6" width="164.8" height="11" rx="3" fill="white" fill-opacity="0.2"/>
<text x="145.6" y="79.6" text-anchor="middle" font-size="6" font-family="Courier New,monospace" fill="white">↑ Physical/What</text>
<polygon points="260.05039281705945,43.67724867724871 477.0040778151889,43.67724867724871 489.0040778151889,66.60780423280426 477.0040778151889,89.5383597883598 260.05039281705945,89.5383597883598 272.05039281705945,66.60780423280426" fill="#26a69a" stroke="white" stroke-width="1.5"/>
<text x="374.5" y="54.6" text-anchor="middle" font-size="8.5" font-weight="bold" fill="white">02 Graph Knowledge Engine</text>
<text x="374.5" y="66.6" text-anchor="middle" font-size="6.5" fill="white" opacity="0.85">OWL · SHACL · JSON-LD</text>
<rect x="292.1" y="71.6" width="164.8" height="11" rx="3" fill="white" fill-opacity="0.2"/>
<text x="374.5" y="79.6" text-anchor="middle" font-size="6" font-family="Courier New,monospace" fill="white">↑ Logical/What</text>
<polygon points="489.0040778151889,43.67724867724871 705.9577628133184,43.67724867724871 717.9577628133184,66.60780423280426 705.9577628133184,89.5383597883598 489.0040778151889,89.5383597883598 501.0040778151889,66.60780423280426" fill="#00897b" stroke="white" stroke-width="1.5"/>
<text x="603.5" y="54.6" text-anchor="middle" font-size="8.5" font-weight="bold" fill="white">03 Semantic Transmutation</text>
<text x="603.5" y="66.6" text-anchor="middle" font-size="6.5" fill="white" opacity="0.85">XSLT · MapForce · XBRL GL</text>
<rect x="521.1" y="71.6" width="164.8" height="11" rx="3" fill="white" fill-opacity="0.2"/>
<text x="603.5" y="79.6" text-anchor="middle" font-size="6" font-family="Courier New,monospace" fill="white">↑ Conceptual/How</text>
<polygon points="717.9577628133183,43.67724867724871 934.9114478114477,43.67724867724871 946.9114478114477,66.60780423280426 934.9114478114477,89.5383597883598 717.9577628133183,89.5383597883598 729.9577628133183,66.60780423280426" fill="#00796b" stroke="white" stroke-width="1.5"/>
<text x="832.4" y="54.6" text-anchor="middle" font-size="8.5" font-weight="bold" fill="white">04 Living Knowledge Wrapper</text>
<text x="832.4" y="66.6" text-anchor="middle" font-size="6.5" fill="white" opacity="0.85">Markdown · YAML-LD · DFRNT</text>
<rect x="750.0" y="71.6" width="164.8" height="11" rx="3" fill="white" fill-opacity="0.2"/>
<text x="832.4" y="79.6" text-anchor="middle" font-size="6" font-family="Courier New,monospace" fill="white">↑ Conceptual/Why</text>
<polygon points="946.9114478114477,43.67724867724871 1175.865132809577,43.67724867724871 1175.865132809577,89.5383597883598 946.9114478114477,89.5383597883598 958.9114478114477,66.60780423280426" fill="#37474f" stroke="white" stroke-width="1.5"/>
<text x="1061.4" y="54.6" text-anchor="middle" font-size="8.5" font-weight="bold" fill="white">05 Continuous Autonomous Audit</text>
<text x="1061.4" y="66.6" text-anchor="middle" font-size="6.5" fill="white" opacity="0.85">iXBRL · FIBO · ACTUS</text>
<rect x="979.0" y="71.6" width="164.8" height="11" rx="3" fill="white" fill-opacity="0.2"/>
<text x="1061.4" y="79.6" text-anchor="middle" font-size="6" font-family="Courier New,monospace" fill="white">↑ Contextual/Why</text>
<line x1="145.6" y1="43.7" x2="559.2" y2="290.9" stroke="#80cbc4" stroke-width="1" stroke-dasharray="3,3" opacity="0.55"/>
<line x1="374.5" y1="43.7" x2="559.2" y2="367.9" stroke="#26a69a" stroke-width="1" stroke-dasharray="3,3" opacity="0.55"/>
<line x1="603.5" y1="43.7" x2="383.0" y2="444.9" stroke="#00897b" stroke-width="1" stroke-dasharray="3,3" opacity="0.55"/>
<line x1="832.4" y1="43.7" x2="206.8" y2="444.9" stroke="#00796b" stroke-width="1" stroke-dasharray="3,3" opacity="0.55"/>
<line x1="1061.4" y1="43.7" x2="206.8" y2="521.9" stroke="#37474f" stroke-width="1" stroke-dasharray="3,3" opacity="0.55"/>
<text x="595.0" y="646" text-anchor="middle" font-size="7" fill="#546e7a">Enterprise Reference Atlas: ai2accountans.github.io  ·  W3C XBRL Chain (2009)  ·  Zachman® is a trademark of Zachman International Inc.</text>
</svg>